<svg width="846" height="503" viewBox="0 0 846 503" fill="none" xmlns="http://www.w3.org/2000/svg">
<path d="M843.751 481.61C856.281 448.496 803.716 457.042 801.896 457.952L799.166 481.61C683.426 501.264 579.879 489.799 542.573 481.61V430.655L446.123 481.61C382.066 485.977 346 464 330.566 455.222L339.665 425.195L210.458 476.15L168.603 447.943C146.462 454.009 93.9904 468.689 61.2339 478.88C28.4773 489.071 38.4863 493.438 47.5853 494.348C307.818 500.718 831.013 515.276 843.751 481.61Z" fill="black"/>
<path d="M716.366 124.927C719.399 137.059 718.186 160.413 689.069 156.774C659.952 153.134 672.691 102.18 699.078 108.549" stroke="black" stroke-width="5" stroke-linecap="round"/>
<path d="M592.618 45.7655C637.81 50.315 739.841 55.4105 786.428 39.3962" stroke="black" stroke-width="5" stroke-linecap="round"/>
<path d="M806.445 20.2882L799.194 486.151C799.178 487.186 798.42 488.034 797.388 488.109C735.806 492.582 602.511 497.204 544.041 481.112C543.155 480.869 542.596 480.055 542.63 479.137L559.789 9.52115C559.829 8.42793 560.694 7.56877 561.788 7.59213C602.855 8.46936 704.595 8.73157 799.166 3" stroke="black" stroke-width="5" stroke-linecap="round"/>
<path d="M596.257 456.132C631.137 456.436 708.539 455.586 739.112 449.763" stroke="black" stroke-width="5" stroke-linecap="round"/>
<path d="M378.791 445.213C384.25 447.336 398.262 452.675 410.637 457.042" stroke="black" stroke-width="5" stroke-linecap="round"/>
<path d="M482.52 73.0626C489.495 76.7022 505.267 82.8896 512.546 78.522" stroke="black" stroke-width="5" stroke-linecap="round"/>
<path d="M471.254 25.0453L558.23 54.565C560.228 55.2428 559.92 58.0161 557.816 58.1689C511.057 61.565 476.908 38.3037 469.425 27.0536C468.57 25.7693 469.793 24.5496 471.254 25.0453Z" fill="black"/>
<path d="M551.672 95.8102L445.214 479.79C404.45 487.069 352.403 466.444 331.476 455.222C345.306 401.356 429.139 140.699 467.961 21.1981L555.312 51.2249" stroke="black" stroke-width="5" stroke-linecap="round"/>
<path d="M408.817 159.503L362.259 122.609C361.356 121.893 360.035 122.087 359.376 123.033L155.864 415.187" stroke="black" stroke-width="5" stroke-linecap="round"/>
<path d="M147.675 429.745L212.278 476.15L412.457 169.512" stroke="black" stroke-width="5" stroke-linecap="round"/>
<path d="M11.1891 452.493C16.5262 461.388 30.211 478.978 43.0628 479.763C43.625 479.797 44.1617 479.552 44.5408 479.136L309.089 188.404C309.875 187.54 309.762 186.194 308.851 185.464C301.936 179.916 289.228 168.664 281.043 157.823C280.284 156.819 278.802 156.71 277.932 157.62L3 445.213" stroke="black" stroke-width="5" stroke-linecap="round"/>
<circle cx="33.0263" cy="447.943" r="3.63962" fill="black"/>
<circle cx="189.53" cy="440.664" r="3.63962" fill="black"/>
<circle cx="371.512" cy="162.233" r="3.63962" fill="black"/>
<circle cx="282.34" cy="182.251" r="3.63962" fill="black"/>
<path d="M279.611 157.684L344.215 141.305" stroke="black" stroke-width="5" stroke-linecap="round"/>
<path d="M361.502 123.107L442.484 97.63" stroke="black" stroke-width="5" stroke-linecap="round"/>
</svg>
