<svg width="182" height="170" viewBox="0 0 182 170" fill="none" xmlns="http://www.w3.org/2000/svg">
<path d="M77.1457 133.134C75.0503 122.317 82.8206 97.6114 86.9676 86.6104C88.35 87.2646 99.9181 85.0112 103.629 79.6319C106.597 75.3285 111.639 73.6382 114.105 72.8714C117.379 71.8537 122.836 71.999 123.855 74.4706L124.946 77.015C128.511 87.2646 125.407 102.845 123.2 109.8L115.051 111.253C108.882 101.251 112.044 89.0579 114.397 84.2116C111.894 87.5846 104.866 91.1416 101.664 92.4985C101.519 101.44 87.8407 132.262 84.8578 134.225C82.4714 135.795 78.7221 134.152 77.1457 133.134Z" fill="black"/>
<path d="M82.3717 134.916L81.353 136.767M78.151 133.743L76.2073 138.876L76.0406 139.315C75.8557 139.76 75.7275 140.505 76.0406 141.14C76.2614 141.588 76.7017 141.981 77.4962 142.175C79.4172 142.644 86.641 143.153 90.0127 143.348C90.5949 143.421 91.701 143.143 91.468 141.442C91.2352 139.741 90.0127 138.184 88.6301 137.556C87.5085 137.046 84.6164 136.255 81.353 136.767L78.151 133.743ZM80.3341 136.969C80.6767 136.887 81.0168 136.82 81.353 136.767L80.3341 136.969Z" stroke="black" stroke-width="1.0974" stroke-linecap="round"/>
<path d="M116.213 110.859C116.141 113.016 116.337 117.263 116.87 117.912C117.526 118.712 118.329 118.784 123.216 117.257C127.125 116.036 128.686 116.021 129.635 115.876C130.291 115.775 131.094 115.687 131.094 114.058C131.094 112.022 130.291 110.641 127.811 110.35C125.827 110.117 122.997 111.32 121.83 111.95V109.987" stroke="black" stroke-width="1.0974" stroke-linecap="round"/>
<path d="M106.877 37.6748C99.3841 38.432 84.6606 41.6234 85.7081 48.3313C85.8687 48.9009 86.3301 49.8097 87.1902 50.6645C88.0187 51.4879 89.217 52.2613 90.873 52.6333" stroke="black" stroke-width="1.0974" stroke-linecap="round"/>
<path d="M87.1902 50.6646C89.5332 54.3102 96.4016 62.2285 105.131 64.7367" stroke="black" stroke-width="1.0974" stroke-linecap="round"/>
<path d="M105.075 64.7368C105.608 64.02 107.011 62.7243 108.657 62.6628" stroke="black" stroke-width="1.0974" stroke-linecap="round"/>
<path d="M108.657 62.6628C108.608 60.6156 106.881 55.3361 100.361 50.5962" stroke="black" stroke-width="1.0974" stroke-linecap="round"/>
<path d="M98.4758 52.2931C99.1525 51.1975 101.231 48.8716 104.132 48.3337" stroke="black" stroke-width="1.0974" stroke-linecap="round"/>
<path d="M114.69 50.219C115.005 50.5904 115.633 51.6006 115.633 52.67" stroke="black" stroke-width="1.0974" stroke-linecap="round"/>
<path d="M114.616 65.87C116.102 65.7975 119.205 65.5795 119.731 65.2888C120.389 64.9256 120.535 64.9256 120.535 64.199C120.535 63.4726 114.616 64.7077 114.616 62.3828C115.152 61.85 116.019 60.6537 115.201 60.1305C114.383 59.6075 112.668 61.1235 111.913 61.9469C111.133 62.7702 109.385 64.0683 108.625 62.6733" stroke="black" stroke-width="1.0974" stroke-linecap="round"/>
<path d="M105.263 64.7078C105.921 66.6209 108.288 70.0548 112.497 68.4856C116.706 66.9163 116.882 66.0881 116.443 65.8701" stroke="black" stroke-width="1.0974" stroke-linecap="round"/>
<path d="M141.512 65.5218C142.535 65.2422 144.771 63.9418 145.531 60.9761C146.29 58.0105 145.263 57.996 144.654 58.3593" stroke="black" stroke-width="1.0974" stroke-linecap="round"/>
<path d="M137.713 63.3748C138.03 61.7272 139.145 58.5484 141.074 59.0135" stroke="black" stroke-width="1.0974" stroke-linecap="round"/>
<path d="M138.517 60.6852C137.173 59.5804 136.349 62.1147 136.106 63.5201C134.586 63.9853 134.012 66.1854 133.914 67.2272C137.431 67.5879 139.93 66.6435 141.512 65.5217C142.481 64.8348 143.107 64.0814 143.412 63.5201C144.167 61.5092 145.267 57.3126 143.631 56.6148C141.994 55.917 141.537 57.487 141.512 58.3592C141.688 60.3364 140.66 62.5267 140.124 63.3748" stroke="black" stroke-width="1.0974" stroke-linecap="round"/>
<path d="M117.33 65.8462C120.496 68.8021 128.245 73.2166 133.914 67.2273" stroke="black" stroke-width="1.0974" stroke-linecap="round"/>
<path d="M116.764 66.2451C116.764 67.6175 116.425 70.7454 115.068 72.2784" stroke="black" stroke-width="1.0974" stroke-linecap="round"/>
<path d="M87.1634 69.4502C84.1756 73.4831 79.9926 82.5981 87.1634 86.796" stroke="black" stroke-width="1.0974" stroke-linecap="round"/>
<path d="M176.532 52.1045L178.229 49.2764" stroke="black" stroke-width="1.0974" stroke-linecap="round"/>
<path d="M177.361 53.5828L180.491 53.4373" stroke="black" stroke-width="1.0974" stroke-linecap="round"/>
<path d="M176.72 55.3098L178.606 57.7608" stroke="black" stroke-width="1.0974" stroke-linecap="round"/>
<path d="M115.09 144.114H64.1614V169" stroke="black" stroke-width="1.0974" stroke-linecap="round"/>
<path d="M150.499 119.301H108.824V149.644" stroke="black" stroke-width="1.0974" stroke-linecap="round"/>
<path d="M178.04 84.5183H144.234V125.049" stroke="black" stroke-width="1.0974" stroke-linecap="round"/>
<path d="M172.066 58.0435V90.1941" stroke="black" stroke-width="1.0974" stroke-linecap="round"/>
<path d="M172.066 46.8254V49.5593" stroke="black" stroke-width="1.0974" stroke-linecap="round"/>
<path d="M106.025 66.5347L64.2872 71.3357C59.459 67.4678 60.6274 61.6934 61.815 59.2897L90.8279 55.812" stroke="black" stroke-width="1.0974" stroke-linecap="round"/>
<path d="M120.35 65.3756L134.675 63.999" stroke="black" stroke-width="1.0974" stroke-linecap="round"/>
<path d="M145.145 62.4773L154.525 61.8252L167.105 56.1233C165.592 54.5177 166.422 53.0874 167.052 52.5757L154.525 49.6533L104.934 53.7831" stroke="black" stroke-width="1.0974" stroke-linecap="round"/>
<path d="M57.3206 59.3494L61.5724 58.8918C58.6236 65.498 62.0038 69.9922 64.1614 71.7409L59.199 72.4668C55.0513 67.4154 56.1205 61.7624 57.3206 59.3494Z" fill="black"/>
<path d="M167.557 56.4409C165.979 54.7938 166.866 52.8322 167.523 52.1987L173.515 53.6775L167.557 56.4409Z" fill="black"/>
<path d="M154.661 49.6533C153.096 51.6402 150.905 56.8352 154.661 61.72" stroke="black" stroke-width="1.0974"/>
<path d="M118.615 38.9469C119.862 38.1793 129.244 38.9191 131.068 27.1182C134.19 27.1547 135.888 24.5968 133.506 23.5021C130.966 22.1923 131.156 19.7877 131.617 18.3708C132.348 16.5127 132.392 14.5618 132.235 14.1538" stroke="black" stroke-width="1.0974" stroke-linecap="round"/>
<path d="M128.315 22.8568C128.669 22.861 128.962 22.4335 128.968 21.902C128.974 21.3705 128.692 20.9362 128.337 20.9321C127.983 20.9279 127.691 21.3554 127.685 21.8869C127.678 22.4185 127.961 22.8527 128.315 22.8568Z" fill="black"/>
<path d="M126.573 18.9618C127.094 18.4048 128.441 17.5902 129.662 18.7868" stroke="black" stroke-width="1.0974" stroke-linecap="round"/>
<path d="M123.034 29.8059C123.991 31.2794 125.043 31.6977 127.085 30.7469" stroke="black" stroke-width="1.0974" stroke-linecap="round"/>
<path d="M115.195 19.478C114.974 19.9652 114.788 21.0712 115.819 21.5976" stroke="black" stroke-width="1.0974" stroke-linecap="round"/>
<path d="M104.205 14.4754C102.99 21.1224 106.791 26.1261 109.547 29.9727C112.49 28.3826 117.314 24.6012 115.464 24.193C113.519 23.7641 111.468 18.4598 113.357 16.8372C115.572 14.9335 117.57 17.8139 117.95 19.998L119.735 16.9119C119.23 14.7534 119.032 10.967 122.278 13.0897C125.523 15.2123 130.284 14.6563 132.258 14.1129C136.152 11.3262 142.2 4.82596 135.249 1.11907C129.468 -1.96403 121.944 1.93385 117.352 5.4363C114.242 4.61541 105.861 5.41232 104.205 14.4754Z" fill="black"/>
<path d="M109.763 29.5273C111.169 31.2193 111.867 32.6243 111.78 35.5348" stroke="black" stroke-width="1.0974" stroke-linecap="round"/>
<path d="M108.199 39.4315C107.707 37.715 107.419 34.4412 110.202 35.0775C113.681 35.8727 120.771 39.3129 120.252 41.2198" stroke="black" stroke-width="1.0974" stroke-linecap="round"/>
<path d="M120.252 43.9028C122.798 46.2596 123.363 47.7679 123.74 50.596" stroke="black" stroke-width="1.0974" stroke-linecap="round"/>
<path d="M1 120.347C4.45759 120.033 12.6049 122.094 18.0474 132.698C18.1897 132.975 18.5911 132.983 18.7329 132.705C24.3154 121.777 31.167 110.69 52.8236 124.038C53.1566 124.244 53.5934 123.872 53.4284 123.517C49.9148 115.96 48.016 101.549 64.3891 94.3992C64.7175 94.2559 64.703 93.7678 64.3591 93.6671L60.1239 92.4293C59.7357 92.3158 59.778 91.7832 60.1809 91.7468C64.5437 91.3537 70.6986 91.6099 68.5796 94.1841C66.1056 97.1894 65.4972 99.0897 66.1003 102.227" stroke="black" stroke-width="1.0974" stroke-linecap="round"/>
</svg>
