<svg width="215" height="135" viewBox="0 0 215 135" fill="none" xmlns="http://www.w3.org/2000/svg">
<path d="M138.515 36.7476H123.395L122.682 43.4765H138.943L138.515 36.7476Z" fill="black"/>
<path d="M139.843 49.3643H122.116L121.28 56.6539H140.345L139.843 49.3643Z" fill="black"/>
<path d="M140.891 62.822H120.557L119.597 70.6724H141.466L140.891 62.822Z" fill="black"/>
<path d="M142.055 77.1211H118.467L117.354 85.2519H138.203L142.588 83.0089L142.055 77.1211Z" fill="black"/>
<path d="M115.953 97.1675L124.083 31.1399M138.382 31.1399L142.588 82.3078" stroke="black" stroke-width="1.34" stroke-linecap="round"/>
<path d="M121.42 31.1399H141.747" stroke="black" stroke-width="1.34" stroke-linecap="round"/>
<path d="M121.42 18.5232H141.747" stroke="black" stroke-width="1.34" stroke-linecap="round"/>
<path d="M124.364 21.6074V26.9345" stroke="black" stroke-width="1.34" stroke-linecap="round"/>
<path d="M138.102 21.6074V26.9345" stroke="black" stroke-width="1.34" stroke-linecap="round"/>
<circle cx="131.653" cy="24.1308" r="2.52335" fill="black"/>
<rect x="129.13" y="13.7568" width="5.0467" height="2.52335" rx="1.26167" fill="black"/>
<path d="M109.083 17.5419L54.6913 1" stroke="black" stroke-width="1.34" stroke-linecap="round"/>
<path d="M106.7 25.2522L6.46729 21.1868" stroke="black" stroke-width="1.34" stroke-linecap="round"/>
<path d="M105.298 30.7195L1 62.6819" stroke="black" stroke-width="1.34" stroke-linecap="round"/>
<path d="M110.766 38.9905L28.1961 97.8686" stroke="black" stroke-width="1.34" stroke-linecap="round"/>
<path d="M56.5136 120.497C61.7209 118.907 100.556 108.121 114.429 98.5935" stroke="black" stroke-width="1.34" stroke-linecap="round"/>
<path d="M93.3752 119.054C100.208 108.095 108.645 100.775 125.537 92.0221C146.651 81.0803 151.475 79.1596 160.507 65.6636" stroke="black" stroke-width="1.34" stroke-linecap="round"/>
<path d="M160.507 65.6636C162.408 69.4183 167.241 79.0166 170.767 84.1523M166.967 82.2107C170.541 83.5927 178.095 88.1387 179.72 95.2664C181.345 102.394 187.921 107.51 190.576 110.558" stroke="black" stroke-width="1.34" stroke-linecap="round"/>
<path d="M167.913 94.6914C170.455 98.6151 175.213 103.621 190.207 109.855" stroke="black" stroke-width="1.34" stroke-linecap="round"/>
<path d="M209.9 132.431C205.473 127.02 195.193 114.825 189.487 109.337" stroke="black" stroke-width="1.34" stroke-linecap="round"/>
<path d="M160.507 65.6636C159.211 70.904 156.936 82.6932 160.18 89.3474" stroke="black" stroke-width="1.34" stroke-linecap="round"/>
<path d="M158.21 84.3289C155.364 85.8436 151.736 91.3961 160.278 103.179" stroke="black" stroke-width="1.34" stroke-linecap="round"/>
<path d="M151.633 105.479C153.931 105.718 158.859 105.646 160.195 103.447" stroke="black" stroke-width="1.34" stroke-linecap="round"/>
<path d="M154.733 127.588L151.633 105.48" stroke="black" stroke-width="1.34" stroke-linecap="round"/>
</svg>
