<svg width="168" height="160" viewBox="0 0 168 160" fill="none" xmlns="http://www.w3.org/2000/svg">
<path d="M7.82848 73.446C8.7623 73.446 9.51932 72.689 9.51932 71.7552C9.51932 70.8213 8.7623 70.0643 7.82848 70.0643C6.89465 70.0643 6.13763 70.8213 6.13763 71.7552C6.13763 72.689 6.89465 73.446 7.82848 73.446Z" stroke="black" stroke-width="0.359674"/>
<path d="M11.1417 71.9274C14.5521 71.5763 19.9035 71.9915 20.536 74.6296C21.1685 77.2677 18.7532 78.2325 17.4666 78.3852C12.5679 79.1638 6.07245 78.7974 6.07245 74.6296" stroke="black" stroke-width="0.359674" stroke-linecap="round"/>
<path d="M9.90942 75.9172C10.1249 75.9172 10.2996 75.7425 10.2996 75.527C10.2996 75.3115 10.1249 75.1368 9.90942 75.1368C9.69392 75.1368 9.51923 75.3115 9.51923 75.527C9.51923 75.7425 9.69392 75.9172 9.90942 75.9172Z" stroke="black" stroke-width="0.359674"/>
<path d="M13.6813 75.527C13.6813 75.7165 13.5047 75.9172 13.2261 75.9172C12.9475 75.9172 12.7709 75.7165 12.7709 75.527C12.7709 75.3375 12.9475 75.1368 13.2261 75.1368C13.5047 75.1368 13.6813 75.3375 13.6813 75.527Z" stroke="black" stroke-width="0.359674"/>
<path d="M16.5427 75.9172C16.7582 75.9172 16.9329 75.7425 16.9329 75.527C16.9329 75.3115 16.7582 75.1368 16.5427 75.1368C16.3272 75.1368 16.1525 75.3115 16.1525 75.527C16.1525 75.7425 16.3272 75.9172 16.5427 75.9172Z" stroke="black" stroke-width="0.359674"/>
<path d="M136.137 25.8424C136.999 25.8424 137.698 25.1436 137.698 24.2816C137.698 23.4196 136.999 22.7208 136.137 22.7208C135.275 22.7208 134.576 23.4196 134.576 24.2816C134.576 25.1436 135.275 25.8424 136.137 25.8424Z" stroke="black" stroke-width="0.359674"/>
<path d="M139.204 22.9159C140.347 22.9159 143.615 22.9159 145.153 22.9159C146.398 22.9159 146.997 23.1914 146.997 25.1194C146.997 26.9928 146.982 29.4194 146.997 30.3988C147.008 31.0873 146.665 31.8494 145.522 31.9596C144.378 32.0697 139.788 32.0055 137.636 31.9596C136.836 31.9596 135.422 31.5064 135.422 29.6642V27.5984" stroke="black" stroke-width="0.359674" stroke-linecap="round"/>
<path d="M138.413 26.1675L141.275 28.1185" stroke="black" stroke-width="0.359674" stroke-linecap="round"/>
<path d="M141.275 28.1184L146.477 23.306" stroke="black" stroke-width="0.359674" stroke-linecap="round"/>
<path d="M142.593 26.9478L144.015 28.3785L145.437 29.8092" stroke="black" stroke-width="0.359674" stroke-linecap="round"/>
<path d="M137.373 29.8092L139.47 26.9478" stroke="black" stroke-width="0.359674" stroke-linecap="round"/>
<path d="M147.575 123.389C147.143 123.821 146.77 124.195 146.514 124.452C145.845 125.122 145.142 124.731 144.874 124.452L140.604 120.338C139.974 119.752 139.441 119.173 137.059 116.901C136.815 116.656 136.429 116.033 136.834 115.492C137.239 114.951 139.516 112.111 140.604 110.758C140.935 110.28 141.652 109.711 142.567 110.562C143.355 111.295 146.056 113.83 148.363 115.758" stroke="black" stroke-width="0.359674" stroke-linecap="round"/>
<path d="M140.559 110.905C140.694 113.372 141.599 117.344 146.282 118.839" stroke="black" stroke-width="0.359674" stroke-linecap="round"/>
<path d="M152.435 119.03C152.22 118.484 150.573 117.849 149.95 119.03C149.308 120.248 149.799 121.274 150.216 121.475C150.749 121.732 151.532 121.866 152.36 120.388" stroke="black" stroke-width="0.359674" stroke-linecap="round"/>
<path d="M152.572 118.27C152.524 118.555 152.474 118.675 152.435 119.03C152.385 119.491 152.352 119.976 152.36 120.388C152.375 121.11 152.518 121.609 152.924 121.368C153.738 120.885 154.178 120.49 154.295 120.086C154.49 119.407 154.492 118.107 153.394 117.257C152.07 116.23 150.577 116.258 149.402 117.257C148.236 118.247 147.917 119.834 147.981 120.657C148.051 121.557 148.723 123.49 150.915 123.52C153.106 123.551 154.294 122.369 154.476 121.816" stroke="black" stroke-width="0.359674" stroke-linecap="round"/>
<path d="M37.0279 102.785C36.5603 100.98 35.0076 97.6504 32.5385 98.7757C30.0692 99.901 31.5095 101.917 32.5385 102.785C33.2308 103.254 34.7193 103.755 35.1339 102.011C35.5486 100.267 33.8012 99.5493 33.31 100.323C33.0511 100.628 32.7586 101.392 33.6608 102.011" stroke="black" stroke-width="0.359674" stroke-linecap="round"/>
<path d="M47.5429 13.2979L50.9084 15.0427C51.024 15.1026 51.1617 15.1019 51.2766 15.0406L54.6218 13.2574C54.6481 13.2434 54.6791 13.2656 54.6742 13.295L54.0548 17.0349C54.0335 17.1633 54.0768 17.2941 54.1706 17.3844L56.9002 20.0149C56.9217 20.0355 56.9101 20.0719 56.8806 20.0763L53.1324 20.6429C53.0036 20.6624 52.8927 20.7439 52.8357 20.861L51.1776 24.27C51.1645 24.2968 51.1264 24.297 51.113 24.2703L49.4159 20.8806C49.3576 20.7642 49.2458 20.6839 49.1168 20.6659L45.3623 20.1423C45.3328 20.1382 45.3208 20.102 45.342 20.081L48.0414 17.4195C48.1341 17.3281 48.1759 17.1969 48.1532 17.0687L47.491 13.3361C47.4858 13.3068 47.5165 13.2842 47.5429 13.2979Z" stroke="black" stroke-width="0.359674"/>
<path d="M88.2084 73.4349V84.4904" stroke="black" stroke-width="0.359674" stroke-linecap="round"/>
<path d="M96.5325 74.7357V85.271" stroke="black" stroke-width="0.359674" stroke-linecap="round"/>
<path d="M77.0628 122.61C74.3142 122.953 67.8796 124.215 66.4701 126.782C66.0472 127.552 65.5566 129.426 66.9774 130.76C68.3983 132.095 70.9948 131.744 72.1152 131.402L78.6486 128.771" stroke="black" stroke-width="0.359674" stroke-linecap="round"/>
<path d="M114.52 103.241C109.392 103.406 86.7394 114.372 76.0544 119.835C75.1445 125.854 78.9842 130.176 81.0177 131.585C91.6683 128.493 113.528 122.226 115.761 121.896C117.995 121.567 120.208 119.972 121.035 119.217C126.825 112.455 122.551 106.711 119.691 104.684C117.654 103.241 115.896 103.196 114.52 103.241Z" fill="black"/>
<path d="M66.4786 101.707C70.1125 101.949 85.9648 108.093 93.4759 111.313L76.2982 119.897C68.6107 122.151 63.8881 121.408 62.4459 120.922C54.1208 116.911 57.3826 107.016 60.6902 103.351C62.822 101.537 65.1766 101.62 66.4786 101.707Z" fill="black"/>
<path d="M106.923 123.781C109.194 124.872 110.422 126.302 111.045 127.475C112.379 130.529 109.983 132.364 107.248 131.501C105.736 131.024 105.38 130.705 104.579 130.041C104.173 129.704 102.275 127.941 100.109 125.858" stroke="black" stroke-width="0.359674" stroke-linecap="round"/>
<path d="M63.2772 71.0622L65.0845 103.906C65.1055 104.287 65.4208 104.586 65.8028 104.586H115.583C115.98 104.586 116.302 104.263 116.302 103.866V70.3273C116.302 69.9262 115.974 69.6026 115.573 69.608L63.9857 70.3034C63.5768 70.3089 63.2547 70.6538 63.2772 71.0622Z" fill="black"/>
<rect x="64.7967" y="105.041" width="51.5056" height="2.47123" rx="0.719349" fill="black"/>
<path d="M96.6625 55.8763C101.193 55.8112 111.165 59.2579 115.132 70.1183" stroke="black" stroke-width="0.359674" stroke-linecap="round"/>
<path d="M86.7125 55.8113C76.3724 57.8273 71.4299 62.2495 67.528 70.7687" stroke="black" stroke-width="0.359674" stroke-linecap="round"/>
<path d="M121.31 66.0973L123.846 61.8702" stroke="black" stroke-width="0.359674" stroke-linecap="round"/>
<path d="M123.846 67.2679L127.293 64.4065" stroke="black" stroke-width="0.359674" stroke-linecap="round"/>
<path d="M124.366 69.219C125.038 69.4791 126.564 69.7262 127.293 68.6337" stroke="black" stroke-width="0.359674" stroke-linecap="round"/>
<path d="M57.8383 65.3059L53.9364 61.2739" stroke="black" stroke-width="0.359674" stroke-linecap="round"/>
<path d="M61.8053 64.6557L59.4641 58.6077" stroke="black" stroke-width="0.359674" stroke-linecap="round"/>
<path d="M56.8629 67.5821L53.9364 66.4766" stroke="black" stroke-width="0.359674" stroke-linecap="round"/>
<path d="M117.733 77.413C120.139 81.1848 122.871 85.6721 117.733 94.1152" stroke="black" stroke-width="0.359674" stroke-linecap="round"/>
<path d="M96.7276 56.2014C97.3129 54.5106 96.7797 53.3728 96.2594 53.156C93.1379 56.0174 88.4035 54.9552 86.6476 53.221C86.0233 53.7933 86.3874 55.4861 86.6476 56.0063C90.0292 59.7522 94.8416 57.6538 96.7276 56.2014Z" fill="black"/>
<path d="M82.8758 66.6065L84.7032 63.8016C85.2662 62.9375 86.3619 62.5925 87.3184 62.9782L92.2991 64.9865C93.1579 65.3328 94.142 65.0926 94.7446 64.3895L98.4185 60.1033" stroke="black" stroke-width="0.359674" stroke-linecap="round"/>
<path d="M62.5206 79.8081C61.5451 82.1059 60.3875 87.677 63.5611 91.579" stroke="black" stroke-width="0.359674" stroke-linecap="round"/>
<path d="M105.695 29.6168C104.264 34.7544 103.549 35.2096 101.468 37.4858C101.468 35.2363 101.081 31.4606 101.081 29.8884C94.2671 29.8884 88.5165 27.1068 86.4929 25.716C86.5654 30.4326 82.1437 33.5165 82.1437 33.5165C82.1437 33.5165 82.7779 35.4213 83.1404 39.6844C83.4303 43.0949 82.5967 42.4358 82.1437 41.6799C80.8389 37.4712 78.7004 38.596 77.7943 39.6844C66.6754 21.6179 83.7745 18.127 87.0365 18.4596C89.5011 16.3553 92.9383 14.7062 95.3545 14.4643C104.069 13.592 108.015 21.2865 105.695 29.6168Z" fill="black"/>
<path d="M82.296 44.8957C83.4665 52.0421 91.3235 57.1808 96.9933 51.3918C102.663 45.6027 101.528 35.006 100.923 30.0612" stroke="black" stroke-width="0.359674" stroke-linecap="round"/>
<path d="M77.6658 39.2417C76.9505 40.9976 77.6216 44.8884 82.2961 44.8884" stroke="black" stroke-width="0.359674" stroke-linecap="round"/>
<path d="M79.7275 40.2061C79.6241 40.5818 79.7068 41.472 80.8654 42.027" stroke="black" stroke-width="0.359674" stroke-linecap="round"/>
<path d="M100.765 43.9781C102.291 43.342 103.367 40.9866 102.953 37.2147" stroke="black" stroke-width="0.359674" stroke-linecap="round"/>
<path d="M92.181 48.2701C93.6768 48.6603 93.5822 47.5865 94.7173 46.6443" stroke="black" stroke-width="0.359674" stroke-linecap="round"/>
<circle cx="96.6461" cy="39.185" r="0.975485" fill="black"/>
<circle cx="88.0619" cy="39.3151" r="0.975485" fill="black"/>
<path d="M85.9378 37.0845C86.1431 36.4801 87.0288 35.362 88.9293 35.7246" stroke="black" stroke-width="0.359674" stroke-linecap="round"/>
<path d="M95.0424 35.9139C95.4957 35.5213 96.7285 34.9717 98.0339 35.9139" stroke="black" stroke-width="0.359674" stroke-linecap="round"/>
<path d="M91.8957 38.6454C91.7443 39.9297 91.6412 42.534 92.4411 42.6774" stroke="black" stroke-width="0.359674" stroke-linecap="round"/>
<path d="M129.374 97.638C146.738 102.45 177.927 107.978 163.776 91.59C159.31 87.1895 152.721 82.0303 142.12 77.478" stroke="black" stroke-width="0.359674" stroke-linecap="round"/>
<path d="M148.168 64.0147C158.963 57.0996 176.353 42.8141 159.549 40.9932C142.744 39.1723 127.401 45.4805 121.83 48.8621" stroke="black" stroke-width="0.359674" stroke-linecap="round"/>
<path d="M106.353 53.9094C113.506 38.4968 125.082 6.55288 114.156 2.07866C100.5 -3.51412 82.8108 12.6139 68.3737 51.113" stroke="black" stroke-width="0.359674" stroke-linecap="round"/>
<path d="M52.4639 40.6326C36.466 31.8749 3.80676 18.4045 1.15344 34.5846C-1.49988 50.7646 30.9166 64.2609 47.4565 68.9866" stroke="black" stroke-width="0.359674" stroke-linecap="round"/>
<path d="M51.7031 77.478C28.3565 89.3789 -0.896399 105.838 15.3071 114.416C21.9403 117.928 38.9138 115.782 46.7176 112.595" stroke="black" stroke-width="0.359674" stroke-linecap="round"/>
<ellipse cx="89.8993" cy="155.387" rx="32.191" ry="3.90194" fill="black"/>
</svg>
